<?xml version="1.0" encoding="utf-8"?>
<!-- Generator: Adobe Illustrator 25.4.1, SVG Export Plug-In . SVG Version: 6.00 Build 0)  -->
<svg version="1.1" id="Capa_1" xmlns="http://www.w3.org/2000/svg" xmlns:xlink="http://www.w3.org/1999/xlink" x="0px" y="0px"
	 viewBox="0 0 129 129" style="enable-background:new 0 0 129 129;" xml:space="preserve">
<style type="text/css">
	.st0{fill:#8773EE;}
</style>
<path class="st0" d="M61.7,4.8c1.8,0,3.6,0,5.4,0C67.2,5,67.4,5,67.6,5c4.5,0.5,8.2,2.6,11.2,6c1.8,2,3.3,4.3,4.6,6.7
	c6.1,12,12.1,24.1,18,36.2c5.2,10.6,10.3,21.2,14.8,32.2c2.1,5.3,3.5,10.6,2.7,16.5c-1.3,9.6-8.4,18-17.7,20.6
	c-6.6,1.8-13,0.7-19.1-2.1c-6.5-3-11.8-7.5-16.6-12.6c-0.3-0.3-0.5-0.7-1-0.8c-2.4,2.6-4.8,5.1-7.6,7.4c-5.2,4.3-10.9,7.7-17.7,8.7
	c-0.5,0.1-1,0.2-1.4,0.5c-2.6,0-5.3,0-7.9,0c-0.2-0.4-0.6-0.3-0.9-0.4c-12.6-3.6-22.3-17.3-17.8-32.2c2.3-7.7,5.6-15,9.1-22.2
	C27.7,54,35.3,38.6,42.8,23.2c1.6-3.2,3.1-6.4,5.1-9.3C51,9.3,55,6.1,60.6,5.1C61,5,61.4,5.2,61.7,4.8z M59.6,101.8
	c-0.5-0.6-0.8-1.1-1.2-1.6c-4.2-5.6-8-11.5-10.8-18.1c-2.5-5.9-3.8-12-2.5-18.4c1.7-8.2,8.4-14.3,16.7-15.3
	c8.8-1,16.9,3.2,20.5,10.9c2.6,5.7,2.5,11.5,0.9,17.4c-1.8,6.8-5.2,12.8-9.1,18.5c-1.5,2.2-3,4.3-4.6,6.5c5.6,6.2,11.8,11.7,20.1,14
	c2.9,0.8,5.8,0.9,8.8,0.3c8.9-1.9,15-11.7,12.6-20.5c-1.7-6.2-4.3-12-6.8-17.8C95.9,58.8,86.5,40.4,77.2,22c-1-2-2.2-4-3.7-5.8
	c-4.5-5.1-12.7-5.4-17.5-0.6c-2,1.9-3.3,4.3-4.5,6.8c-7.3,14.6-14.6,29.2-21.6,44c-3.8,7.9-7.6,15.8-10.7,24
	c-1.4,3.8-2.2,7.6-1.5,11.6c1.7,10,10.5,16.3,20.3,14.3C47.1,114.5,53.5,108.4,59.6,101.8z M64.5,95.9c4.8-6.5,9.1-13,11.4-20.6
	c0.8-2.6,1.2-5.2,0.9-7.9c-0.5-5.1-2.8-8.9-7.7-10.8c-4.9-1.8-10.4-0.6-13.7,3c-3.1,3.4-3.6,7.6-3.1,12c0.5,3.7,1.8,7.1,3.4,10.3
	C58.1,86.9,61.1,91.4,64.5,95.9z"/>
</svg>
