<?xml version="1.0" encoding="utf-8"?>
<!-- Generator: Adobe Illustrator 25.4.1, SVG Export Plug-In . SVG Version: 6.00 Build 0)  -->
<svg version="1.1" id="moneda_xA0_Imagen_1_" xmlns="http://www.w3.org/2000/svg" xmlns:xlink="http://www.w3.org/1999/xlink"
	 x="0px" y="0px" viewBox="0 0 283.4 283.4" style="enable-background:new 0 0 283.4 283.4;" xml:space="preserve">
<style type="text/css">
	.st0{fill:#E1B038;}
</style>
<path class="st0" d="M141.7,10c72.8,0,131.8,59.1,131.8,131.9c0,72.9-59.1,131.8-132.1,131.7c-72.6,0-131.5-59.2-131.5-132.1
	C9.9,68.9,69,10,141.7,10z M188.4,170.2c-0.3,0.4-0.6,0.8-0.8,1.2c-3.1,4.8-6.9,9.1-11.4,12.7c-14.5,11.5-30.9,15.1-48.8,10.7
	c-11.6-2.8-21.2-9-28.7-18.3c-11.3-14-15.3-30-11.3-47.7c5.5-24.4,26.4-41.4,50.9-42.9c6.5-0.4,13,0.3,19.2,2.4
	c20.4,6.9,33,20.8,37.9,41.8c0.2,1,0.6,1.8,1.3,2.4c10.5,10.5,20.9,20.9,31.4,31.4c0.4,0.4,0.8,0.9,1.3,1.4c0.3-0.3,0.2-0.7,0.2-1
	c0-2.7,0-5.4,0-8.2c-0.1-7.4,0.2-14.9-0.3-22.3c-0.5-6.2-1.6-12.2-3.5-18.1c-5.2-16.8-14.4-31-28-42.2
	c-15.4-12.8-33.2-19.6-53.2-20.5c-8-0.4-15.9,0.4-23.6,2.3c-20,4.8-36.5,15.3-49.2,31.5c-11.8,15-18,32.2-18.8,51.2
	c-0.3,7.7,0.4,15.4,2.2,22.9c4.8,20.3,15.2,37,31.6,49.8c17.4,13.6,37.2,19.8,59.2,18.8c5.4-0.3,10.6-1,15.8-2.2
	c12.5-2.9,23.7-8.5,33.8-16.3c0.5-0.4,1-0.8,1.7-1.3c0,6.7,0,13.2,0,19.6c10.8,0,21.5,0,32.3,0c0-0.4,0-0.7,0-1.1
	c0-4.8-0.1-9.6,0-14.4c0-1.8-0.6-3-1.8-4.2C214.6,196.5,201.5,183.4,188.4,170.2z"/>
</svg>
