<?xml version="1.0" encoding="utf-8"?>
<!-- Generator: Adobe Illustrator 25.4.1, SVG Export Plug-In . SVG Version: 6.00 Build 0)  -->
<svg version="1.1" id="Capa_1" xmlns="http://www.w3.org/2000/svg" xmlns:xlink="http://www.w3.org/1999/xlink" x="0px" y="0px"
	 viewBox="0 0 750 700" style="enable-background:new 0 0 750 700;" xml:space="preserve">
<style type="text/css">
	.st0{fill:#EBE8FD;}
</style>
<g>
	<path class="st0" d="M273.4,156L273.4,156c16.2,19.9,13.1,49.2-6.8,65.4l-168.7,137c-19.9,16.2-49.2,13.1-65.3-6.8l0,0
		c-16.2-19.9-13.1-49.2,6.8-65.4l168.7-137C227.9,133,257.2,136.1,273.4,156z"/>
	<path class="st0" d="M294.8,138.6L294.8,138.6c-16.2-19.9-13.1-49.2,6.8-65.3l53.6-43.5c19.9-16.2,49.2-13.1,65.4,6.8l0,0
		c16.2,19.9,13.1,49.2-6.8,65.4l-53.6,43.5C340.2,161.5,311,158.5,294.8,138.6z"/>
	<path class="st0" d="M577.9,77.1L577.9,77.1c16.2,19.9,13.1,49.2-6.8,65.3L90.7,532.5c-19.9,16.2-49.2,13.1-65.3-6.8l0,0
		c-16.2-19.9-13.1-49.2,6.8-65.4L512.5,70.3C532.4,54.1,561.7,57.2,577.9,77.1z"/>
	<path class="st0" d="M384.7,398.7L384.7,398.7c16.2,19.9,13.1,49.2-6.8,65.4L124,670.3c-19.9,16.2-49.2,13.1-65.3-6.8l0,0
		c-16.2-19.9-13.1-49.2,6.8-65.3l254-206.3C339.3,375.8,368.5,378.8,384.7,398.7z"/>
	<path class="st0" d="M724.6,121.3L724.6,121.3c16.2,19.9,13.1,49.2-6.8,65.4L463.9,393c-19.9,16.2-49.2,13.1-65.4-6.8l0,0
		c-16.2-19.9-13.1-49.2,6.8-65.4l254-206.3C679.2,98.4,708.4,101.4,724.6,121.3z"/>
</g>
</svg>
