<?xml version="1.0" encoding="utf-8"?>
<!-- Generator: Adobe Illustrator 25.4.1, SVG Export Plug-In . SVG Version: 6.00 Build 0)  -->
<svg version="1.1" id="Capa_1" xmlns="http://www.w3.org/2000/svg" xmlns:xlink="http://www.w3.org/1999/xlink" x="0px" y="0px"
	 viewBox="0 0 104 104" style="enable-background:new 0 0 104 104;" xml:space="preserve">
<style type="text/css">
	.st0{fill:#010101;}
</style>
<path class="st0" d="M56.01,1.99C60.65,2.32,65.19,3.23,69.49,5c18.03,7.4,28.85,20.66,32.17,39.94c0.19,1.1,0.26,4.26,0.26,4.26
	s0.1,2.42,0.17,4.02c0.02,0.51,0.02,1.02-0.01,1.53c-0.04,0.71-0.11,1.71-0.22,2.33c-0.18,1.01-0.21,2.05-0.38,3.07
	c-1.67,9.69-5.65,18.31-12.04,25.8C82.67,93.88,74.31,99.34,64.18,102c-0.12,0.03-0.24,0.05-0.43,0.09c0-2.23,0-4.42,0-6.6
	c0-4.38-0.08-8.75,0.03-13.13c0.08-3.44-0.72-6.52-2.98-9.16c-0.23-0.27-0.4-0.57-0.67-0.96c1.94-0.37,3.78-0.72,5.56-1.29
	c4.87-1.56,9.08-4.07,12.13-8.3c2.22-3.08,3.47-6.54,3.96-10.28c0.75-5.77-1.04-10.88-4.26-15.56c-0.69-1-0.84-1.87-0.53-3.07
	c1.01-3.85,0.47-7.62-0.87-11.27c-3.6-0.07-6.72,1.37-9.6,3.22c-2.17,1.4-4.17,1.89-6.81,1.23c-5.89-1.49-11.85-1.09-17.72,0.45
	c-0.79,0.21-1.43,0.08-2.12-0.34c-2.51-1.51-5-3.07-7.81-3.99c-1.32-0.43-2.71-0.35-4.09-0.71c-1.17,2.98-1.69,6.02-1.37,9.19
	c0.04,0.42-0.01,0.89,0.16,1.26c0.89,1.91,0.11,3.32-0.96,4.95c-3.12,4.77-4.17,10.09-3.29,15.71c1.41,8.99,6.92,14.44,15.3,17.32
	c1.93,0.67,3.93,1.1,6.08,1.44c-0.51,0.74-0.97,1.4-1.43,2.05c-0.9,1.29-1.63,2.73-1.84,4.29c-0.08,0.55-0.33,0.82-0.87,0.98
	c-3.39,1.02-5.79,0.22-7.77-2.76c-1.57-2.36-3.3-4.53-5.89-5.87c-1.6-0.84-3.31-1.22-5.16-1.05l0.51,5.76
	c2.09,0.07,3.4,1.36,4.54,2.87c1.08,1.43,1.94,3.02,3.3,4.23c2.83,2.53,6.11,3.51,9.86,2.97c0.35-0.05,0.7-0.08,1.08-0.12
	c0,5.52,0,11,0,16.52c-4.25-1.01-8.23-2.63-11.97-4.77c-8.57-4.9-15.17-11.77-19.91-20.39c-3.28-5.97-5.4-12.34-6.1-19.14
	c-1.74-16.73,3.57-30.93,15.7-42.48C25.8,7.81,35.3,3.48,46.13,2.15c0.65-0.08,4.64-0.25,5.9-0.25"/>
</svg>
