<?xml version="1.0" encoding="utf-8"?>
<!-- Generator: Adobe Illustrator 25.4.1, SVG Export Plug-In . SVG Version: 6.00 Build 0)  -->
<svg version="1.1" id="Capa_1" xmlns="http://www.w3.org/2000/svg" xmlns:xlink="http://www.w3.org/1999/xlink" x="0px" y="0px"
	 viewBox="0 0 116 116" style="enable-background:new 0 0 116 116;" xml:space="preserve">
<style type="text/css">
	.st0{fill:#8773EE;}
</style>
<path class="st0" d="M103,49.3c0.6,3.2,0.9,6.5,0.9,9.9c0,27-18.1,46.2-45.4,46.2c-6.2,0-12.4-1.2-18.1-3.6
	c-5.7-2.4-10.9-5.9-15.3-10.2c-4.4-4.4-7.9-9.6-10.2-15.3c-2.4-5.7-3.6-11.9-3.6-18.1c0-6.2,1.2-12.4,3.6-18.1
	c2.4-5.7,5.9-10.9,10.2-15.3c4.4-4.4,9.6-7.9,15.3-10.2c5.7-2.4,11.9-3.6,18.1-3.6c12.8,0,23.4,4.7,31.6,12.3L76.8,36.6v0
	c-5-4.7-11.3-7.1-18.3-7.1c-15.6,0-28.3,13.2-28.3,28.8C30.3,73.8,43,87,58.5,87c14.1,0,23.8-8.1,25.8-19.2H58.5V49.3H103L103,49.3z
	"/>
</svg>
