<?xml version="1.0" encoding="utf-8"?>
<!-- Generator: Adobe Illustrator 25.4.1, SVG Export Plug-In . SVG Version: 6.00 Build 0)  -->
<svg version="1.1" id="Capa_1" xmlns="http://www.w3.org/2000/svg" xmlns:xlink="http://www.w3.org/1999/xlink" x="0px" y="0px"
	 viewBox="0 0 40 40" style="enable-background:new 0 0 40 40;" xml:space="preserve">
<style type="text/css">
	.st0{fill:#FFFFFF;}
</style>
<g>
	<path class="st0" d="M39.6,9.6c0,7,0,14,0,20.9c-0.2,0.1-0.1,0.3-0.2,0.5c-0.6,1.8-2.2,2.9-4.2,2.9C25.1,34,15,34,4.8,34
		c-0.1,0-0.3,0-0.4,0c-2.2-0.1-4-1.9-4-4.1c0-6.6,0-13.2,0-19.7c0-0.6,0.1-1.1,0.4-1.7C0.9,8.5,1,8.6,1.1,8.6
		C7.1,12.7,13,16.9,19,21c0.8,0.6,1.3,0.6,2.1,0c5.6-3.9,11.2-7.8,16.8-11.7c0.4-0.3,0.8-0.6,1.3-0.9C39.4,8.8,39.4,9.3,39.6,9.6z"
		/>
	<path class="st0" d="M37.1,6.4c-1.2,0.8-2.4,1.7-3.6,2.5c-4.4,3.1-8.8,6.1-13.2,9.2c-0.3,0.2-0.4,0.2-0.7,0
		c-5.5-3.8-11-7.6-16.5-11.4C3.1,6.6,3,6.5,2.9,6.4c0.5-0.3,1-0.4,1.6-0.4c0.1,0,0.3,0,0.4,0C15,6,25,6,35.1,6
		C35.8,6,36.5,6.1,37.1,6.4z"/>
</g>
</svg>
